G04 #@! TF.GenerationSoftware,KiCad,Pcbnew,8.0.8*
G04 #@! TF.CreationDate,2025-01-16T17:39:40+01:00*
G04 #@! TF.ProjectId,led_matrix,6c65645f-6d61-4747-9269-782e6b696361,rev?*
G04 #@! TF.SameCoordinates,Original*
G04 #@! TF.FileFunction,Copper,L1,Top*
G04 #@! TF.FilePolarity,Positive*
%FSLAX46Y46*%
G04 Gerber Fmt 4.6, Leading zero omitted, Abs format (unit mm)*
G04 Created by KiCad (PCBNEW 8.0.8) date 2025-01-16 17:39:40*
%MOMM*%
%LPD*%
G01*
G04 APERTURE LIST*
G04 Aperture macros list*
%AMRoundRect*
0 Rectangle with rounded corners*
0 $1 Rounding radius*
0 $2 $3 $4 $5 $6 $7 $8 $9 X,Y pos of 4 corners*
0 Add a 4 corners polygon primitive as box body*
4,1,4,$2,$3,$4,$5,$6,$7,$8,$9,$2,$3,0*
0 Add four circle primitives for the rounded corners*
1,1,$1+$1,$2,$3*
1,1,$1+$1,$4,$5*
1,1,$1+$1,$6,$7*
1,1,$1+$1,$8,$9*
0 Add four rect primitives between the rounded corners*
20,1,$1+$1,$2,$3,$4,$5,0*
20,1,$1+$1,$4,$5,$6,$7,0*
20,1,$1+$1,$6,$7,$8,$9,0*
20,1,$1+$1,$8,$9,$2,$3,0*%
G04 Aperture macros list end*
G04 #@! TA.AperFunction,ComponentPad*
%ADD10O,2.400000X1.600000*%
G04 #@! TD*
G04 #@! TA.AperFunction,ComponentPad*
%ADD11R,2.400000X1.600000*%
G04 #@! TD*
G04 #@! TA.AperFunction,SMDPad,CuDef*
%ADD12RoundRect,0.631000X0.631000X-1.869000X0.631000X1.869000X-0.631000X1.869000X-0.631000X-1.869000X0*%
G04 #@! TD*
G04 #@! TA.AperFunction,ComponentPad*
%ADD13RoundRect,0.249999X-1.025001X1.025001X-1.025001X-1.025001X1.025001X-1.025001X1.025001X1.025001X0*%
G04 #@! TD*
G04 #@! TA.AperFunction,ComponentPad*
%ADD14C,2.550000*%
G04 #@! TD*
G04 #@! TA.AperFunction,ComponentPad*
%ADD15RoundRect,0.249999X1.025001X1.025001X-1.025001X1.025001X-1.025001X-1.025001X1.025001X-1.025001X0*%
G04 #@! TD*
G04 #@! TA.AperFunction,ComponentPad*
%ADD16C,1.600000*%
G04 #@! TD*
G04 #@! TA.AperFunction,ComponentPad*
%ADD17O,1.600000X1.600000*%
G04 #@! TD*
G04 #@! TA.AperFunction,ComponentPad*
%ADD18RoundRect,0.249999X1.025001X-1.025001X1.025001X1.025001X-1.025001X1.025001X-1.025001X-1.025001X0*%
G04 #@! TD*
G04 #@! TA.AperFunction,ComponentPad*
%ADD19R,1.600000X1.600000*%
G04 #@! TD*
G04 #@! TA.AperFunction,Conductor*
%ADD20C,3.000000*%
G04 #@! TD*
G04 #@! TA.AperFunction,Conductor*
%ADD21C,0.400000*%
G04 #@! TD*
G04 #@! TA.AperFunction,Conductor*
%ADD22C,0.200000*%
G04 #@! TD*
G04 APERTURE END LIST*
D10*
X129795000Y-81875000D03*
X129795000Y-84415000D03*
X129795000Y-86955000D03*
X129795000Y-89495000D03*
X129795000Y-92035000D03*
X129795000Y-94575000D03*
X129795000Y-97115000D03*
X122175000Y-97115000D03*
X122175000Y-94575000D03*
X122175000Y-92035000D03*
X122175000Y-89495000D03*
X122175000Y-86955000D03*
X122175000Y-84415000D03*
D11*
X122175000Y-81875000D03*
D12*
X152000000Y-124000000D03*
X167000000Y-124000000D03*
X152000000Y-104000000D03*
X167000000Y-104000000D03*
D13*
X145000000Y-104800000D03*
D14*
X145000000Y-109600000D03*
X145000000Y-114400000D03*
X145000000Y-119200000D03*
D15*
X138800000Y-122000000D03*
D14*
X134000000Y-122000000D03*
X129200000Y-122000000D03*
X124400000Y-122000000D03*
D16*
X116500000Y-87920000D03*
D17*
X116500000Y-98080000D03*
D15*
X134000000Y-128000000D03*
D14*
X129200000Y-128000000D03*
D18*
X116500000Y-126700000D03*
D14*
X116500000Y-121900000D03*
X116500000Y-117100000D03*
X116500000Y-112300000D03*
D19*
X133152651Y-113000000D03*
D16*
X129652651Y-113000000D03*
D19*
X174540000Y-81500000D03*
D17*
X172000000Y-81500000D03*
X169460000Y-81500000D03*
X166920000Y-81500000D03*
X164380000Y-81500000D03*
X161840000Y-81500000D03*
X159300000Y-81500000D03*
X156760000Y-81500000D03*
X154220000Y-81500000D03*
X151680000Y-81500000D03*
X149140000Y-81500000D03*
X146600000Y-81500000D03*
X144060000Y-81500000D03*
X141520000Y-81500000D03*
X138980000Y-81500000D03*
X138980000Y-96740000D03*
X141520000Y-96740000D03*
X144060000Y-96740000D03*
X146600000Y-96740000D03*
X149140000Y-96740000D03*
X151680000Y-96740000D03*
X154220000Y-96740000D03*
X156760000Y-96740000D03*
X159300000Y-96740000D03*
X161840000Y-96740000D03*
X164380000Y-96740000D03*
X166920000Y-96740000D03*
X169460000Y-96740000D03*
X172000000Y-96740000D03*
X174540000Y-96740000D03*
D20*
X138800000Y-123200000D02*
X138800000Y-122000000D01*
X134000000Y-128000000D02*
X138800000Y-123200000D01*
X124400000Y-113600000D02*
X119800000Y-109000000D01*
X124400000Y-122000000D02*
X124400000Y-113600000D01*
D21*
X163500000Y-100500000D02*
X167000000Y-104000000D01*
X150138000Y-101621104D02*
X151259104Y-100500000D01*
X150138000Y-107113651D02*
X150138000Y-101621104D01*
X145776651Y-111475000D02*
X150138000Y-107113651D01*
X144223349Y-111475000D02*
X145776651Y-111475000D01*
X131263349Y-98515000D02*
X144223349Y-111475000D01*
X151259104Y-100500000D02*
X163500000Y-100500000D01*
X123575000Y-98515000D02*
X131263349Y-98515000D01*
X122175000Y-97115000D02*
X123575000Y-98515000D01*
D22*
X113100000Y-101480000D02*
X113100000Y-118500000D01*
X116500000Y-98080000D02*
X113100000Y-101480000D01*
X113100000Y-118500000D02*
X116500000Y-121900000D01*
D21*
X113800000Y-114400000D02*
X116500000Y-117100000D01*
X113800000Y-105490000D02*
X113800000Y-114400000D01*
X122175000Y-97115000D02*
X113800000Y-105490000D01*
D22*
X117465000Y-86955000D02*
X116500000Y-87920000D01*
X122175000Y-86955000D02*
X117465000Y-86955000D01*
X150205000Y-85515000D02*
X154220000Y-81500000D01*
X123275000Y-85515000D02*
X150205000Y-85515000D01*
X122175000Y-84415000D02*
X123275000Y-85515000D01*
D21*
X131670000Y-80000000D02*
X129795000Y-81875000D01*
X175940000Y-99300896D02*
X175940000Y-80100000D01*
X173870448Y-101370448D02*
X175940000Y-99300896D01*
X175940000Y-80100000D02*
X175840000Y-80000000D01*
X173870448Y-101370448D02*
X167740896Y-107500000D01*
X174540000Y-100700896D02*
X173870448Y-101370448D01*
X175840000Y-80000000D02*
X131670000Y-80000000D01*
D22*
X145000000Y-109600000D02*
X141520000Y-106120000D01*
X141520000Y-106120000D02*
X141520000Y-96740000D01*
X150580000Y-99220000D02*
X145000000Y-104800000D01*
X164380000Y-81500000D02*
X150580000Y-95300000D01*
X150580000Y-95300000D02*
X150580000Y-99220000D01*
D21*
X155500000Y-107500000D02*
X152000000Y-104000000D01*
X167740896Y-107500000D02*
X155500000Y-107500000D01*
X174540000Y-96740000D02*
X174540000Y-100700896D01*
X172000000Y-96500000D02*
X166920000Y-91420000D01*
X172000000Y-96740000D02*
X172000000Y-96500000D01*
X166920000Y-91420000D02*
X166920000Y-81500000D01*
X172000000Y-99000000D02*
X172000000Y-96740000D01*
X167000000Y-104000000D02*
X172000000Y-99000000D01*
D20*
X134000000Y-111690495D02*
X134000000Y-113347349D01*
X131309505Y-109000000D02*
X134000000Y-111690495D01*
X116500000Y-112300000D02*
X119800000Y-109000000D01*
X119800000Y-109000000D02*
X131309505Y-109000000D01*
X117800000Y-128000000D02*
X116500000Y-126700000D01*
X129200000Y-128000000D02*
X117800000Y-128000000D01*
X134000000Y-120500000D02*
X134000000Y-122000000D01*
X136500000Y-118000000D02*
X134000000Y-120500000D01*
X142000000Y-118000000D02*
X136500000Y-118000000D01*
X143200000Y-119200000D02*
X142000000Y-118000000D01*
X145000000Y-119200000D02*
X143200000Y-119200000D01*
X157400000Y-114400000D02*
X145000000Y-114400000D01*
X167000000Y-124000000D02*
X157400000Y-114400000D01*
X159000000Y-132000000D02*
X167000000Y-124000000D01*
X131396878Y-132000000D02*
X159000000Y-132000000D01*
X129200000Y-128000000D02*
X129200000Y-129803122D01*
X129200000Y-129803122D02*
X131396878Y-132000000D01*
X147200000Y-119200000D02*
X152000000Y-124000000D01*
X145000000Y-119200000D02*
X147200000Y-119200000D01*
X134000000Y-116500000D02*
X134000000Y-113347349D01*
X134000000Y-122000000D02*
X134000000Y-116500000D01*
X134000000Y-113347349D02*
X133652651Y-113000000D01*
X129200000Y-113452651D02*
X129652651Y-113000000D01*
X129200000Y-122000000D02*
X129200000Y-113452651D01*
X129200000Y-128000000D02*
X129200000Y-122000000D01*
M02*
