M48
; DRILL file {KiCad 8.0.8} date 2025-01-16T17:40:09+0100
; FORMAT={-:-/ absolute / metric / decimal}
; #@! TF.CreationDate,2025-01-16T17:40:09+01:00
; #@! TF.GenerationSoftware,Kicad,Pcbnew,8.0.8
; #@! TF.FileFunction,Plated,1,2,PTH
FMAT,2
METRIC
; #@! TA.AperFunction,Plated,PTH,ComponentDrill
T1C0.800
; #@! TA.AperFunction,Plated,PTH,ComponentDrill
T2C1.000
; #@! TA.AperFunction,Plated,PTH,ComponentDrill
T3C1.550
%
G90
G05
T1
X116.5Y-87.92
X116.5Y-98.08
X122.175Y-81.875
X122.175Y-84.415
X122.175Y-86.955
X122.175Y-89.495
X122.175Y-92.035
X122.175Y-94.575
X122.175Y-97.115
X129.653Y-113.0
X129.795Y-81.875
X129.795Y-84.415
X129.795Y-86.955
X129.795Y-89.495
X129.795Y-92.035
X129.795Y-94.575
X129.795Y-97.115
X133.153Y-113.0
T2
X138.98Y-81.5
X138.98Y-96.74
X141.52Y-81.5
X141.52Y-96.74
X144.06Y-81.5
X144.06Y-96.74
X146.6Y-81.5
X146.6Y-96.74
X149.14Y-81.5
X149.14Y-96.74
X151.68Y-81.5
X151.68Y-96.74
X154.22Y-81.5
X154.22Y-96.74
X156.76Y-81.5
X156.76Y-96.74
X159.3Y-81.5
X159.3Y-96.74
X161.84Y-81.5
X161.84Y-96.74
X164.38Y-81.5
X164.38Y-96.74
X166.92Y-81.5
X166.92Y-96.74
X169.46Y-81.5
X169.46Y-96.74
X172.0Y-81.5
X172.0Y-96.74
X174.54Y-81.5
X174.54Y-96.74
T3
X116.5Y-112.3
X116.5Y-117.1
X116.5Y-121.9
X116.5Y-126.7
X124.4Y-122.0
X129.2Y-122.0
X129.2Y-128.0
X134.0Y-122.0
X134.0Y-128.0
X138.8Y-122.0
X145.0Y-104.8
X145.0Y-109.6
X145.0Y-114.4
X145.0Y-119.2
M30
